<svg width="32" height="19" viewBox="0 0 32 19" fill="none" xmlns="http://www.w3.org/2000/svg">
<path d="M23.7691 5.51L26.4245 0.843125C26.4713 0.763239 26.4989 0.666079 26.4989 0.562443C26.4989 0.252614 26.2521 0.00215945 25.9468 0.00215945C25.7436 0.00215945 25.566 0.113353 25.4702 0.279603L25.4691 0.281762L22.7809 5.00693C20.7734 4.07097 18.4255 3.52472 15.9521 3.52472C13.4787 3.52472 11.1309 4.07097 9.01915 5.05011L9.1234 5.00693L6.43511 0.280682C6.3383 0.112273 6.15957 0 5.95638 0C5.65106 0 5.40426 0.250455 5.40426 0.560284C5.40426 0.66392 5.43191 0.76 5.47979 0.843125L5.47872 0.840966L8.13404 5.50784C3.57447 8.06312 0.43617 12.7376 0.00319151 18.186L0 18.2422H31.9053C31.4691 12.7376 28.3309 8.06312 23.8521 5.54886L23.7713 5.50784L23.7691 5.51ZM8.60745 13.6314C7.8734 13.6314 7.27872 13.028 7.27872 12.2831C7.27872 11.5382 7.8734 10.9347 8.60745 10.9347C9.34149 10.9347 9.93617 11.5382 9.93617 12.2831C9.93511 13.0269 9.34149 13.6303 8.60745 13.6314ZM23.2926 13.6314C22.5585 13.6314 21.9638 13.028 21.9638 12.2831C21.9638 11.5382 22.5585 10.9347 23.2926 10.9347C24.0266 10.9347 24.6213 11.5382 24.6213 12.2831C24.6202 13.0269 24.0266 13.6303 23.2926 13.6314Z" fill="white"/>
</svg>
