<svg width="22" height="21" viewBox="0 0 22 21" fill="none" xmlns="http://www.w3.org/2000/svg">
<path d="M10.9998 0C4.92482 0 0 4.71833 0 10.5386C0 15.4807 3.55161 19.6279 8.34267 20.7669V13.7592H6.07452V10.5386H8.34267V9.15085C8.34267 5.56394 10.0371 3.90138 13.7128 3.90138C14.4097 3.90138 15.6122 4.03248 16.1041 4.16316V7.08234C15.8445 7.05621 15.3935 7.04314 14.8334 7.04314C13.0299 7.04314 12.333 7.69779 12.333 9.39956V10.5386H15.9259L15.3086 13.7592H12.333V21C17.7796 20.3698 22 15.9267 22 10.5386C21.9996 4.71833 17.0747 0 10.9998 0Z" fill="#1B84FA"/>
</svg>
