<svg width="132" height="99" viewBox="0 0 132 99" fill="none" xmlns="http://www.w3.org/2000/svg">
<path d="M93.5001 25.4821V72.5306C93.5001 86.603 82.084 98.0139 68.0027 98.0139C60.9614 98.0139 54.5888 95.1595 49.9745 90.5477C45.3578 85.9382 42.5076 79.5657 42.5076 72.5306V25.4821C42.5076 11.4098 53.9225 0 68.0038 0C75.0451 0 81.4177 2.85332 86.0332 7.46394C90.6487 12.0746 93.5001 18.446 93.5001 25.481V25.4821Z" fill="#1B84FA"/>
<path d="M56.4015 17.5856C60.1425 16.9485 64.219 19.0538 64.765 23.0136C65.2392 26.4553 65.2022 37.7183 64.7083 41.1636C63.6267 48.6957 52.0301 49.2495 51.1788 39.9161C50.878 36.6235 50.7507 24.8264 51.601 22.0829C52.177 20.225 54.4269 17.9208 56.4015 17.5856ZM62.8019 30.459C63.0506 30.2081 62.8679 24.0992 62.7244 23.3928C61.7308 18.5093 53.7838 17.9613 53.1545 25.2981C52.8445 28.9063 52.8445 35.6523 53.1719 39.2525C53.852 46.7419 62.1715 46.1488 62.8019 40.2549C62.8806 39.5149 63.0194 34.3262 62.8019 34.1077C62.5139 33.8176 58.5045 35.0222 58.5045 32.2834C58.5045 29.5434 62.5139 30.748 62.8019 30.459Z" fill="#FDFCFC"/>
<path d="M85.0569 36.4334C83.8643 36.3756 83.7625 34.7663 83.1471 33.8622C80.5756 30.084 75.1978 30.0065 72.6216 33.7998C72.3012 34.2715 71.3689 37.0936 70.7743 36.4334C71.4151 27.6885 84.3524 27.7648 85.0557 36.4334H85.0569Z" fill="#121012"/>
<path d="M68.7824 45.736C69.805 45.7233 69.8316 46.8828 70.6563 47.365C72.4817 48.4321 73.9254 46.1314 73.7669 44.4053C74.3418 44.5244 74.4297 45.0735 74.4551 45.5695C74.6414 49.1754 68.4793 49.9882 68.7824 45.736Z" fill="#121012"/>
<path d="M76.3084 22.8718C76.9388 22.6741 79.9429 22.5342 79.7417 23.6441C79.5867 24.5019 76.9504 23.3978 76.2702 24.1331L75.7578 23.3215C75.9209 23.133 76.0539 22.9504 76.3072 22.8718H76.3084Z" fill="#121012"/>
<path d="M60.4768 14.5175V15.5106C59.12 15.3221 57.2553 16.0158 56.1598 15.0088C56.0013 14.2041 56.8053 14.5371 57.3166 14.5163C58.3669 14.4724 59.43 14.544 60.4768 14.5175Z" fill="#121012"/>
<path d="M62.8018 30.4599C62.5137 30.7501 58.5044 29.5454 58.5044 32.2843C58.5044 35.0243 62.5137 33.8196 62.8018 34.1087C63.0181 34.326 62.8804 39.5159 62.8018 40.2558C62.1713 46.1497 53.853 46.7428 53.1717 39.2534C52.8443 35.6521 52.8443 28.9073 53.1543 25.299C53.7836 17.9622 61.7306 18.5114 62.7243 23.3937C62.8677 24.0989 63.0516 30.2091 62.8018 30.4599Z" fill="#121012"/>
<path d="M34.2195 16.5803C33.1044 15.1201 32.0147 16.2462 32.1662 17.6983C32.3212 17.9896 33.8435 20.7135 33.6608 20.8233C31.9025 20.4753 30.9412 21.6476 30.2471 23.0835C30.1708 23.2442 30.2043 23.3448 29.9684 23.1853C29.7058 23.0084 30.0887 22.4211 30.2009 22.2187C30.667 21.4014 31.2825 20.8441 32.1732 20.5343C32.349 20.473 32.969 20.4002 32.9991 20.3701C33.2351 20.1412 32.113 18.5319 32.1708 18.0972C31.7197 18.4116 31.7752 19.1747 31.3854 19.636C31.0291 20.0545 30.4172 20.1181 29.951 19.8186C29.678 19.6336 29.6583 19.34 29.5357 19.14C29.3148 18.7862 29.2142 19.592 28.7584 19.6903C27.5218 19.9608 26.8116 18.8313 27.0394 17.7422C26.94 17.807 26.7236 17.7734 26.7074 17.7873C26.6404 17.8486 26.3963 19.4047 26.3454 19.6799C26.3315 19.7562 26.5455 20.8441 26.5964 21.0187C26.7109 21.4199 27.1378 22.095 27.1123 22.3679C27.0695 22.7482 26.7722 23.1737 26.6612 23.5575C25.4107 27.8051 23.6663 32.61 23.8445 37.0299C23.856 37.3825 23.6362 37.9166 23.6073 38.3293C22.6055 53.6838 32.0517 67.8152 48.1851 69.0071C49.9492 69.1354 51.7572 69.0036 53.5155 68.6314C53.5583 68.6221 53.6011 68.6129 53.645 68.6036L50.1319 62.4253C50.0822 62.423 50.0348 62.4241 49.9862 62.423C45.3418 62.349 40.621 60.8079 37.1669 57.6991C29.1251 50.4767 28.8891 38.3178 31.8446 28.5855C32.7758 25.5345 33.434 25.3865 35.2583 23.1078C35.9269 22.2777 36.5099 21.8118 36.2322 20.6453C36.0738 19.977 34.6498 17.1445 34.2229 16.5803H34.2195Z" fill="#1B84FA"/>
<path d="M34.0726 15.9175C33.7984 15.9614 33.9349 15.7024 33.8424 15.6608C33.2628 15.4007 32.9586 15.7452 32.4172 15.7047C32.6578 15.07 32.3108 14.4816 32.3501 13.8364C33.0546 12.8722 34.349 8.7229 35.1391 8.23039C35.8771 7.77026 36.9089 8.55295 36.725 9.37727L34.0726 15.9175Z" fill="#1B84FA"/>
<path d="M35.5196 18.3908C35.4721 18.3526 35.464 18.1954 35.4502 18.1457C35.4189 18.0347 35.3784 17.926 35.3206 17.8254C35.2107 17.6335 35.0754 17.4601 34.9516 17.2774C34.8382 17.1109 34.7226 16.9445 34.6184 16.7722C34.5467 16.6531 34.46 16.519 34.4368 16.3791C34.4334 16.3595 34.4195 16.2832 34.4415 16.2693C36.2356 15.0692 37.6989 13.4668 39.367 12.1084C40.2612 11.8066 40.9841 12.5119 40.7042 13.4217C40.548 13.9281 40.0726 14.3547 39.7047 14.7108C39.1426 15.2542 38.541 15.756 37.9476 16.2635C37.6307 16.5352 37.3068 16.8161 36.9956 17.1017C36.7932 17.2867 36.5873 17.4693 36.3964 17.6647C36.3004 17.763 36.209 17.8636 36.1234 17.9711C36.0413 18.0728 35.9742 18.1965 35.8678 18.2752C35.7764 18.3422 35.6642 18.3711 35.5543 18.4C35.5415 18.4035 35.5311 18.4 35.5219 18.3931L35.5196 18.3908Z" fill="#1B84FA"/>
<path d="M29.8017 19.0742C29.3436 18.4522 29.6305 17.6025 29.782 16.9192C29.9093 16.3423 30.0053 15.7596 30.1198 15.1804C30.2158 14.6948 30.4009 14.2497 30.9457 14.1306C31.6652 13.9734 32.2286 14.6243 32.2159 15.3076C32.2112 15.5746 32.1407 15.8348 32.0713 16.0926C31.7913 17.1273 31.5553 18.1921 31.206 19.2037C31.0649 19.613 30.7155 19.7344 30.335 19.5298C30.1279 19.4188 29.9405 19.2615 29.8017 19.0731V19.0742Z" fill="#1B84FA"/>
<path d="M27.6894 16.2031C27.6894 16.2031 27.6975 16.1973 27.7021 16.1961C27.731 16.1846 27.7646 16.1915 27.7946 16.1857C27.8571 16.1719 27.8895 16.1036 27.908 16.0424C28.0121 15.6828 27.9161 15.1753 28.2897 14.951C28.4332 14.8654 28.6044 14.8307 28.7698 14.8227C29.0821 14.8076 29.4847 14.8816 29.6975 15.1348C29.7392 15.1845 29.7727 15.2423 29.7889 15.3059C29.9578 15.9591 29.1053 18.3558 28.9167 19.1419C28.5084 19.7119 27.4846 19.1547 27.3262 18.5708C27.2938 18.4517 27.3088 18.3142 27.3146 18.1916C27.3262 17.9893 27.3493 17.7881 27.3759 17.5881C27.4337 17.1534 27.5159 16.7222 27.6362 16.3002C27.6466 16.2643 27.6605 16.225 27.6894 16.2042V16.2031Z" fill="#1B84FA"/>
<path d="M33.9696 15.7151C33.6538 15.5417 33.2871 15.4607 32.9274 15.4839L33.9696 15.7151Z" fill="#1B84FA"/>
<path d="M32.5176 13.9458C32.5847 14.3898 32.6449 14.8349 32.6981 15.2811L32.5176 13.9458Z" fill="#1B84FA"/>
<path d="M16.0188 57.6663C14.7729 58.6872 14.0858 60.3867 14.5034 61.9682C14.6538 62.5371 14.9025 63.0735 15.15 63.6065C15.7539 64.9071 16.3589 66.2112 17.1177 67.4275C17.8777 68.6437 18.8008 69.7756 19.9518 70.6288C20.529 71.0565 21.4718 71.5941 22.16 71.1143C22.9998 70.5282 23.0334 69.4657 22.9767 68.5373C22.9096 67.461 22.6355 66.4101 22.3682 65.3696C22.0351 64.0689 21.7112 62.7602 21.2034 61.5174C20.5093 59.819 18.7869 56.7426 16.4884 57.4374C16.3253 57.4871 16.1506 57.5576 16.0176 57.6663H16.0188Z" fill="#0276FC"/>
<path d="M119.897 68.5684H114.451C111.069 68.5684 108.326 71.3084 108.326 74.69V85.9218C108.326 89.3023 111.069 92.0435 114.451 92.0435H120.054C126.456 92.0435 131.676 86.8895 131.779 80.5134C131.885 73.9293 126.487 68.5695 119.899 68.5695L119.897 68.5684ZM120.619 83.1552H118.361C115.28 83.1552 113.741 81.6152 113.741 78.5388C113.741 75.4623 115.28 73.9212 118.361 73.9212H120.824C124.211 73.9212 126.367 75.6658 126.367 78.5388C126.367 81.4117 124.11 83.1552 120.62 83.1552H120.619Z" fill="#0475F7"/>
<path d="M125.187 78.5394C125.187 79.9788 124.016 80.9372 122.203 80.9372H121.028C119.428 80.9372 118.628 80.1372 118.628 78.5394C118.628 76.9416 119.428 76.1416 121.028 76.1416H122.308C124.068 76.1416 125.187 77.048 125.187 78.5394Z" fill="#FE69AD"/>
<path d="M36.8533 86.811C36.5166 86.1798 36.6207 85.3971 37.1297 84.8907C38.8521 83.1773 39.8967 80.8257 39.8967 78.2025C39.8967 72.9121 35.6074 68.6587 30.3476 68.6587H22.1207C20.4469 68.6587 19.0911 70.0137 19.0911 71.6877V89.1048C19.0911 90.7765 20.4469 92.1326 22.1207 92.1326H34.645C36.9319 92.1326 38.3952 89.6955 37.3183 87.6781L36.8544 86.811H36.8533ZM30.4587 83.2455H28.2007C25.1202 83.2455 23.5817 81.7056 23.5817 78.6291C23.5817 75.5527 25.1202 74.0127 28.2007 74.0127H30.6646C34.0527 74.0127 36.2066 75.7561 36.2066 78.6291C36.2066 81.5021 33.9509 83.2455 30.4587 83.2455Z" fill="#0276FC"/>
<path d="M35.0279 78.6292C35.0279 80.0686 33.855 81.027 32.0411 81.027H30.8682C29.2672 81.027 28.4679 80.227 28.4679 78.6292C28.4679 77.0315 29.2672 76.2314 30.8682 76.2314H32.1464C33.907 76.2314 35.0268 77.1367 35.0268 78.6292H35.0279Z" fill="#FE69AD"/>
<path d="M9.21132 77.1308C9.20901 77.5308 9.36864 77.8904 9.63123 78.1528C9.89266 78.4129 10.2524 78.5725 10.6469 78.5725H13.7667C13.8812 78.5725 13.9945 78.5748 14.1068 78.5794C14.1068 78.5794 14.1079 78.5794 14.1102 78.5794C14.581 78.6361 14.9905 78.9505 15.1606 79.4003C15.2253 79.5737 15.2728 79.7552 15.3005 79.9436C15.3156 80.0396 15.3237 80.1367 15.3283 80.235C15.3295 80.2558 15.3294 80.2778 15.3294 80.2986V82.412C15.3294 83.9103 14.1148 85.1231 12.6168 85.1231H10.087C9.58149 85.1231 9.17199 85.5323 9.17199 86.0376V88.9938C9.17199 90.721 7.77115 92.1211 6.04294 92.1211H3.13021C1.402 92.1211 0 90.721 0 88.9938V71.8091C0 70.0819 1.40085 68.6807 3.13021 68.6807H12.2004C13.9286 68.6807 15.3306 70.0807 15.3306 71.8091V73.9399C15.3306 74.0717 15.3214 74.2023 15.3017 74.3295C15.2739 74.5179 15.2265 74.6994 15.1606 74.8729C14.9732 75.3712 14.4908 75.703 13.9587 75.703H10.6839C9.88803 75.703 9.2171 76.3331 9.21132 77.1285V77.1308Z" fill="#31CCC2"/>
<path d="M28.0609 55.9506C26.5154 56.4073 25.2222 57.7068 24.9908 59.3265C24.9075 59.908 24.9283 60.4999 24.9492 61.0873C25.0001 62.5197 25.0498 63.9568 25.2765 65.3719C25.5033 66.787 25.9139 68.1882 26.6427 69.4229C27.0082 70.0414 27.6676 70.9028 28.4889 70.7282C29.4906 70.5143 29.9348 69.5478 30.2437 68.6714C30.6011 67.654 30.7561 66.5789 30.9146 65.5164C31.1136 64.188 31.3241 62.8573 31.3403 61.5139C31.3611 59.6803 30.9701 56.176 28.5826 55.9229C28.4137 55.9044 28.2251 55.902 28.0597 55.9506H28.0609Z" fill="#0276FC"/>
<path d="M101.326 68.5845H98.3192C95.9467 68.5845 94.023 70.5083 94.023 72.8783V73.7362C94.023 75.1536 92.3896 75.949 91.2722 75.0773L86.334 71.2204C84.6659 69.9175 82.2297 71.1071 82.2297 73.2217V86.8119C82.2297 89.6907 84.5653 92.0249 87.4444 92.0249H88.4902L90.6221 92.0237C90.6441 92.0237 90.6649 92.0237 90.6857 92.0237C90.784 92.0191 90.8812 92.0099 90.9772 91.996C91.1646 91.9694 91.3474 91.9209 91.5209 91.8561C91.9709 91.6862 92.2855 91.2769 92.341 90.8064C92.341 90.8064 92.3414 90.8056 92.3422 90.804C92.3468 90.6907 92.3491 90.5774 92.3491 90.463V85.7656C92.3491 85.3703 92.5088 85.0119 92.7702 84.7506C93.0328 84.4881 93.3925 84.3286 93.7928 84.3309C94.5886 84.3355 95.2191 85.0072 95.2191 85.8015V90.6537C95.2202 91.1856 95.5522 91.6688 96.0508 91.855C96.2243 91.9209 96.4071 91.9694 96.5945 91.996C96.7217 92.0168 96.8513 92.0249 96.9831 92.0249H99.115C99.1949 92.0249 99.2747 92.0226 99.3533 92.0168V92.0272H100.465C103.346 92.0272 105.682 89.693 105.682 86.8142V72.9419C105.682 70.5372 103.731 68.5868 101.324 68.5868L101.326 68.5845Z" fill="#FABD43"/>
<path opacity="0.61" d="M32.8613 70.8899C32.8844 70.8553 32.9145 70.824 32.9539 70.7986C33.0117 70.7628 33.0765 70.7408 33.1412 70.72C33.457 70.6229 33.7763 70.5824 34.1048 70.6379C34.239 70.6599 34.3709 70.6957 34.4993 70.7396C35.0638 70.9339 35.6098 71.2518 36.0366 71.6715C36.0748 71.7085 36.1118 71.7478 36.1488 71.7871C36.5317 72.2045 36.8013 72.7606 36.792 73.3363C36.7897 73.4612 36.7758 73.6149 36.6728 73.7005C36.5803 73.7768 36.4623 73.7722 36.4299 73.771C35.9638 73.7525 35.8203 73.1201 35.6121 72.808C35.3241 72.3767 34.8718 72.0461 34.416 71.8091C34.2113 71.7027 33.9926 71.6218 33.7705 71.5617C33.5484 71.5015 33.3124 71.5385 33.0892 71.4819C33.0175 71.4634 32.9458 71.4345 32.8937 71.3813C32.8324 71.3189 32.8046 71.2275 32.8046 71.1397C32.8046 71.0483 32.8197 70.9616 32.8648 70.8911L32.8613 70.8899Z" fill="white"/>
<path opacity="0.28" d="M32.1904 76.8855C32.2019 76.8681 32.2158 76.8531 32.2355 76.8415C32.2632 76.8242 32.2956 76.8126 32.3269 76.8034C32.4807 76.756 32.6357 76.7363 32.7954 76.7629C32.8601 76.7733 32.9249 76.7907 32.9874 76.8126C33.2615 76.9063 33.5264 77.0612 33.7346 77.2658C33.7532 77.2843 33.7717 77.3028 33.789 77.3225C33.9753 77.526 34.106 77.7953 34.1013 78.0751C34.1013 78.1352 34.0932 78.2104 34.0435 78.252C33.9984 78.289 33.9405 78.2867 33.9255 78.2867C33.6988 78.2775 33.6294 77.9699 33.5276 77.8185C33.3876 77.6092 33.1678 77.4485 32.9457 77.3329C32.8462 77.2809 32.7398 77.2416 32.6322 77.2127C32.5235 77.1838 32.409 77.2011 32.3014 77.1734C32.2667 77.1641 32.232 77.1502 32.2066 77.1248C32.1765 77.0947 32.1638 77.0496 32.1638 77.0069C32.1638 76.9629 32.1707 76.9202 32.1927 76.8855H32.1904Z" fill="white"/>
<path opacity="0.28" d="M122.627 76.9328C122.639 76.9155 122.653 76.9005 122.673 76.8889C122.7 76.8716 122.733 76.86 122.764 76.8508C122.918 76.8034 123.073 76.7837 123.232 76.8103C123.297 76.8207 123.362 76.838 123.424 76.86C123.699 76.9536 123.964 77.1086 124.172 77.3132C124.19 77.3317 124.209 77.3502 124.226 77.3699C124.412 77.5733 124.543 77.8427 124.538 78.1225C124.538 78.1826 124.53 78.2578 124.481 78.2994C124.435 78.3364 124.378 78.3341 124.363 78.3341C124.136 78.3248 124.066 78.0173 123.965 77.8658C123.825 77.6566 123.605 77.4959 123.383 77.3803C123.283 77.3282 123.177 77.2889 123.069 77.26C122.961 77.2311 122.846 77.2485 122.738 77.2207C122.704 77.2115 122.669 77.1976 122.644 77.1722C122.614 77.1421 122.601 77.097 122.601 77.0542C122.601 77.0103 122.608 76.9675 122.63 76.9328H122.627Z" fill="white"/>
<path opacity="0.61" d="M9.68323 69.5986C9.72835 69.5605 9.78271 69.5316 9.83824 69.5108C9.97358 69.4622 10.1263 69.4541 10.2674 69.4403C10.4259 69.4252 10.5844 69.4171 10.7428 69.4137C11.0563 69.4067 11.3686 69.416 11.6821 69.4183C11.9401 69.4206 12.198 69.4275 12.456 69.431C12.7591 69.4738 13.0668 69.5432 13.3444 69.6738C13.622 69.8044 13.843 70.0403 13.9818 70.2993C13.998 70.3293 14.013 70.3594 14.0257 70.3894C14.1576 70.69 14.1819 71.023 14.1911 71.3479C14.1958 71.5109 14.1911 71.6739 14.205 71.8357C14.2189 72.0092 14.2432 72.1826 14.2305 72.3572C14.2235 72.4439 14.2062 72.534 14.153 72.6034C14.1113 72.6578 14.05 72.6947 13.9852 72.7179C13.9228 72.741 13.8487 72.7514 13.7909 72.7167C13.688 72.6543 13.6694 72.4832 13.6521 72.3745C13.6313 72.2415 13.6185 72.1086 13.6024 71.9756C13.5503 71.5467 13.4716 71.1016 13.209 70.7455C13.0263 70.4981 12.7591 70.3328 12.4629 70.2565C12.0916 70.1617 11.696 70.1836 11.3154 70.1813C10.8469 70.179 10.3784 70.1675 9.91343 70.1016C9.79891 70.0854 9.67166 70.0588 9.60573 69.9628C9.5502 69.8819 9.55714 69.7686 9.60688 69.6842C9.62655 69.6507 9.652 69.6218 9.68092 69.5975L9.68323 69.5986Z" fill="white"/>
<path opacity="0.61" d="M101.266 69.9166C101.29 69.8889 101.32 69.8646 101.357 69.8472C101.411 69.8218 101.471 69.8102 101.532 69.7998C101.821 69.7513 102.106 69.7536 102.388 69.8403C102.503 69.8762 102.614 69.9212 102.722 69.9756C103.195 70.2114 103.638 70.556 103.964 70.9745C103.993 71.0115 104.022 71.0496 104.049 71.0889C104.337 71.5005 104.508 72.0219 104.433 72.526C104.417 72.6347 104.386 72.7688 104.285 72.8324C104.194 72.889 104.09 72.8705 104.063 72.8659C103.655 72.7954 103.603 72.2231 103.456 71.9236C103.254 71.5109 102.895 71.1675 102.522 70.9051C102.354 70.7872 102.172 70.6901 101.983 70.6114C101.793 70.5328 101.582 70.5375 101.393 70.4612C101.331 70.4369 101.272 70.4022 101.232 70.3502C101.186 70.2877 101.172 70.2045 101.182 70.127C101.193 70.0473 101.216 69.9721 101.264 69.9155L101.266 69.9166Z" fill="white"/>
<path opacity="0.61" d="M122.394 70.7087C122.422 70.6625 122.461 70.6209 122.511 70.5873C122.585 70.5376 122.669 70.5064 122.752 70.4787C123.161 70.3411 123.576 70.2775 124.005 70.3365C124.181 70.3607 124.353 70.4012 124.522 70.4544C125.265 70.6868 125.988 71.0833 126.561 71.6151C126.611 71.6625 126.661 71.7111 126.71 71.762C127.225 72.2938 127.595 73.0094 127.604 73.7597C127.606 73.9216 127.592 74.1239 127.461 74.2395C127.341 74.3424 127.188 74.3413 127.146 74.3401C126.537 74.3332 126.328 73.5135 126.045 73.1123C125.654 72.5597 125.052 72.1446 124.448 71.8521C124.178 71.7203 123.89 71.6221 123.597 71.5515C123.304 71.481 122.999 71.5377 122.705 71.4718C122.61 71.451 122.515 71.4151 122.446 71.3481C122.364 71.2683 122.324 71.1504 122.321 71.0359C122.318 70.9168 122.334 70.8024 122.39 70.7087H122.394Z" fill="white"/>
<path opacity="0.61" d="M28.2888 56.7302C28.3189 56.7129 28.3536 56.7013 28.3929 56.699C28.4496 56.6944 28.5062 56.7036 28.5629 56.714C28.8348 56.7649 29.0881 56.8585 29.3102 57.0273C29.4016 57.0955 29.4849 57.173 29.5635 57.2562C29.9071 57.6193 30.1893 58.0678 30.3432 58.5453C30.3571 58.5881 30.3698 58.6309 30.3814 58.6748C30.504 59.1338 30.4866 59.6517 30.2564 60.076C30.2067 60.1674 30.1361 60.2772 30.0262 60.3003C29.9268 60.3211 29.8412 60.2714 29.818 60.2587C29.4791 60.0645 29.6179 59.5384 29.5844 59.2251C29.5381 58.7927 29.331 58.3719 29.0835 58.0181C28.9724 57.8597 28.8429 57.7141 28.6994 57.5834C28.5571 57.4528 28.3686 57.388 28.224 57.2597C28.1777 57.2181 28.1361 57.1684 28.1176 57.1094C28.0968 57.0389 28.1118 56.9603 28.1453 56.8955C28.18 56.8273 28.2263 56.7683 28.2865 56.7337L28.2888 56.7302Z" fill="white"/>
<path opacity="0.61" d="M16.8345 58.4399C16.8622 58.4179 16.8935 58.4006 16.9316 58.3913C16.9872 58.3774 17.045 58.3774 17.1017 58.3774C17.3781 58.3832 17.6442 58.4341 17.8906 58.5636C17.9912 58.6168 18.0872 58.678 18.1775 58.7474C18.5766 59.0492 18.9282 59.4457 19.1584 59.892C19.1792 59.9313 19.1989 59.9717 19.2174 60.0134C19.4129 60.4458 19.4823 60.9602 19.325 61.4157C19.2914 61.514 19.2394 61.6342 19.1341 61.6747C19.0404 61.7117 18.9467 61.677 18.9213 61.6678C18.5546 61.5314 18.6055 60.9903 18.521 60.6862C18.4042 60.2677 18.1312 59.8862 17.8293 59.5775C17.6939 59.4388 17.5413 59.3174 17.3793 59.211C17.2174 59.1046 17.0207 59.0723 16.8576 58.9694C16.8056 58.9358 16.7558 58.8942 16.728 58.8376C16.6957 58.7717 16.698 58.6919 16.7199 58.6214C16.7431 58.5485 16.7789 58.4826 16.8333 58.4387L16.8345 58.4399Z" fill="white"/>
<path d="M75.1817 75.6781H77.4814C78.2738 75.6781 78.9343 75.0457 78.9389 74.2549V71.212C78.9389 69.8663 77.8469 68.7749 76.5004 68.7749H69.4904C63.9761 68.7749 59.5064 73.2422 59.5064 78.7534V81.7697C59.5064 87.5388 64.1855 92.2153 69.9578 92.2153H76.4993C77.8469 92.2153 78.9377 91.1239 78.9377 89.7782V86.7376C78.9343 86.0856 78.3906 85.5642 77.737 85.5642H75.1447C74.7491 85.5642 74.3905 85.4046 74.1291 85.1433C73.8665 84.8809 73.7057 84.5202 73.708 84.1213C73.7138 83.327 74.3847 82.6958 75.1806 82.6958H77.0939C78.0968 82.6958 78.9296 81.8946 78.9377 80.8934V80.1038C78.932 79.239 78.2113 78.5488 77.346 78.5488H75.1436C74.748 78.5488 74.3894 78.3892 74.1279 78.1291C73.8653 77.8667 73.7045 77.506 73.7069 77.1071C73.7126 76.3117 74.3836 75.6804 75.1794 75.6804L75.1817 75.6781Z" fill="#31CCC2"/>
<path opacity="0.61" d="M73.4672 69.6826C73.5123 69.6445 73.5666 69.6156 73.6222 69.5948C73.7575 69.5462 73.9102 69.5381 74.0513 69.5242C74.2098 69.5092 74.3683 69.5011 74.5268 69.4977C74.8402 69.4907 75.1526 69.5 75.466 69.5023C75.724 69.5046 75.982 69.5115 76.2399 69.515C76.543 69.5578 76.8507 69.6271 77.1283 69.7578C77.3955 69.8838 77.6269 70.1243 77.7657 70.3832C77.7819 70.4133 77.7969 70.4434 77.8097 70.4734C77.9415 70.774 77.9658 71.107 77.9751 71.4318C77.9797 71.5949 77.9751 71.7579 77.989 71.9197C78.0028 72.0932 78.0271 72.2666 78.0144 72.4411C78.0075 72.5279 77.9901 72.618 77.9369 72.6874C77.8953 72.7417 77.834 72.7787 77.7692 72.8019C77.7067 72.825 77.6327 72.8354 77.5748 72.8007C77.4719 72.7383 77.4534 72.5672 77.436 72.4585C77.4152 72.3255 77.4025 72.1926 77.3863 72.0596C77.3342 71.6307 77.2556 71.1856 76.993 70.8295C76.8102 70.5821 76.543 70.4168 76.2469 70.3405C75.8755 70.2457 75.4799 70.2676 75.0994 70.2653C74.6309 70.263 74.1624 70.2514 73.6974 70.1855C73.5828 70.1694 73.4556 70.1428 73.3897 70.0468C73.3341 69.9659 73.3411 69.8526 73.3908 69.7682C73.4105 69.7347 73.4359 69.7058 73.4649 69.6815L73.4672 69.6826Z" fill="white"/>
<path opacity="0.61" d="M76.3926 79.0119C76.4042 78.9934 76.4204 78.9761 76.4401 78.9622C76.4701 78.9425 76.5048 78.9298 76.5384 78.9183C76.7049 78.8639 76.8727 78.8385 77.0474 78.8639C77.1179 78.8743 77.1885 78.8917 77.2567 78.9136C77.5575 79.0096 77.8501 79.1726 78.0803 79.39C78.1012 79.4096 78.1208 79.4293 78.1405 79.4501C78.3476 79.6674 78.4968 79.9588 78.4979 80.2628C78.4979 80.3287 78.4922 80.4108 78.4389 80.4571C78.3904 80.4987 78.3279 80.4975 78.3105 80.4975C78.0642 80.4929 77.9809 80.1599 77.8663 79.9969C77.709 79.7715 77.4661 79.6015 77.222 79.4813C77.1121 79.4269 76.9965 79.3865 76.8773 79.3576C76.7582 79.3287 76.6344 79.3506 76.5152 79.3229C76.4771 79.3136 76.4389 79.2998 76.41 79.272C76.3764 79.2397 76.3614 79.1911 76.3602 79.1449C76.3591 79.0963 76.366 79.05 76.3891 79.0119H76.3926Z" fill="white"/>
<path d="M52.9185 70.202C51.8138 69.0991 50.2904 68.417 48.6061 68.417C45.2388 68.417 42.5088 71.1454 42.5088 74.5109V85.7623C42.5088 87.4445 43.1913 88.9694 44.2948 90.0712C45.3984 91.1742 46.923 91.8563 48.6061 91.8563C51.9734 91.8563 54.7034 89.1278 54.7034 85.7623V74.5109C54.7034 72.8288 54.0221 71.3038 52.9185 70.202Z" fill="#FBBF3A"/>
<path opacity="0.61" d="M49.8785 69.9049C49.9028 69.8771 49.9329 69.8529 49.9699 69.8355C50.0242 69.8101 50.0844 69.7985 50.1445 69.7881C50.4337 69.7396 50.7195 69.7419 51.0005 69.8286C51.1162 69.8644 51.2273 69.9095 51.3349 69.9639C51.808 70.1997 52.251 70.5442 52.5772 70.9627C52.6061 70.9997 52.6351 71.0379 52.6617 71.0772C52.9497 71.4888 53.1209 72.0102 53.0457 72.5143C53.0295 72.6229 52.9994 72.7571 52.8976 72.8206C52.8074 72.8773 52.7033 72.8588 52.6755 72.8542C52.2684 72.7836 52.2163 72.2114 52.0694 71.9119C51.867 71.4992 51.5084 71.1558 51.1347 70.8934C50.967 70.7755 50.7854 70.6783 50.5957 70.5997C50.4071 70.5211 50.1954 70.5257 50.0057 70.4494C49.9444 70.4251 49.8854 70.3905 49.8449 70.3384C49.7987 70.276 49.7848 70.1928 49.7952 70.1153C49.8056 70.0355 49.8288 69.9604 49.8773 69.9037L49.8785 69.9049Z" fill="white"/>
<path opacity="0.47" d="M71.8245 4.58588C71.9472 4.44367 72.0999 4.32344 72.2919 4.23673C72.5707 4.10955 72.8737 4.05059 73.1768 4.00088C74.6436 3.7604 76.093 3.77428 77.5204 4.21476C78.1046 4.39512 78.6703 4.63097 79.2151 4.90497C81.6142 6.10965 83.8537 7.86002 85.5044 9.98845C85.6525 10.1792 85.7948 10.3723 85.9324 10.5711C87.3877 12.6649 88.2494 15.3078 87.8631 17.8674C87.7798 18.4212 87.6225 19.101 87.1089 19.419C86.6473 19.7045 86.1245 19.612 85.981 19.5866C83.9162 19.2224 83.6582 16.3171 82.9168 14.7979C81.893 12.7007 80.0792 10.9527 78.1867 9.6208C77.3365 9.02309 76.4146 8.52711 75.4568 8.12478C74.5013 7.7236 73.4278 7.74441 72.4677 7.35711C72.1577 7.23225 71.8558 7.05883 71.6557 6.79061C71.4185 6.47267 71.3526 6.05184 71.4046 5.65876C71.4578 5.25296 71.5793 4.8726 71.8245 4.58588Z" fill="white"/>
</svg>
